# xmcd
#
# Track frame offsets: 
#        150
#        11761
#        24324
#        44069
#        57229
#        75212
#        88825
#        102659
#        119208
#        132178
#        147476
#        164871
#        180936
#        196195
#        212942
#        228160
#        245694
#        260683
#        274657
#        291572
#        307815
#
# Disc length: 4405 seconds
#
# Revision: 0
# Processed by: cddbd v1.5.1PL0 Copyright (c) Steve Scherf et al.
# Submitted via: ExactAudioCopy v0.95a3
#
DISCID=3e113315
DTITLE=Various Artist - В Десяточку
DYEAR=2000
DGENRE=Pop
TTITLE0=Иzюм - Дождь
TTITLE1=Жуки - Танкист
TTITLE2=Паскаль - Шёлковое Сердце
TTITLE3=Дилайла - Однажды Ночью
TTITLE4=Шао? Бао! - Ча Ча Шао
TTITLE5=Лакмус - Недикаприо
TTITLE6=Игорёк - Подождём
TTITLE7=Т. Светлова - Одинокая Звезда
TTITLE8=S.P.O.R.T. - Каникулы
TTITLE9=Гоголь - Настя
TTITLE10=Ультра - Ультрафиолет
TTITLE11=Гости Из Будущего - Ты Где-То
TTITLE12=В. Цветаев - Я Тебя Люблю
TTITLE13=Суханов Павлович - Шум Дождя
TTITLE14=Титаник - Где-То
TTITLE15=Вирус - Кап-Кап
TTITLE16=Л. Черникова - Для Тебя
TTITLE17=Мультfильмы - Тело
TTITLE18=Медуза - Слёзы Воспоминания
TTITLE19=Горячие Головы - Типа, Я Без Тебя
TTITLE20=Демо-Микс Нового Альбома Проекта "Иzюм"
EXTD=
EXTT0=
EXTT1=
EXTT2=
EXTT3=
EXTT4=
EXTT5=
EXTT6=
EXTT7=
EXTT8=
EXTT9=
EXTT10=
EXTT11=
EXTT12=
EXTT13=
EXTT14=
EXTT15=
EXTT16=
EXTT17=
EXTT18=
EXTT19=
EXTT20=
PLAYORDER=
